<svg id="Layer_1" data-name="Layer 1" xmlns="http://www.w3.org/2000/svg" viewBox="0 0 230.85 257.97"><defs><style>.cls-1{fill:#fff;stroke:#000;stroke-miterlimit:10;}.cls-2{fill:#090909;fill-rule:evenodd;}</style></defs><title>around_the_country</title><rect class="cls-1" x="3" y="3" width="224.85" height="251.97"/><g id="Page-1"><g id="iPhone-7"><path id="Rectangle-2" d="M16,17.79v252H240.8v-252Zm-3-3H243.8v258H13Z" transform="translate(-12.95 -14.79)"/><path id="Around-The-Country" class="cls-2" d="M76,97.55l1.27,2.6H69.15l.56-1.53L68.29,92.7l-.77-.76H61.15l-.77.76L59,98.62l.56,1.53h-8.1l1.27-2.6,8-33.92-.72-2.24h8.83L68,63.63ZM61.86,84.85l.61.56h3.78l.61-.56-2.5-12.39Zm25.81,15.3h-8l.82-2.45V63.89l-.82-2.5H96.6l3.26,3.16V82.2L96.6,85.46l2.8,12.09,1,2.6h-8l.56-2.4L90.22,86.07l-.51-.61H87.62l-.77.77V97.7Zm0-21.11h5l.76-.72V68.63l-.76-.71h-5l-.77.71v9.69Zm33.2-17.65L124,64.55V96.94l-3.22,3.21h-12.9l-3.26-3.21V64.55l3.26-3.16Zm-3.31,7.24-.77-.71h-4.89l-.77.71V93l.77.71h4.89l.77-.71Zm31.93-7.24h-8.11l.82,2.5V93l-.77.71h-5l-.76-.71V63.89l.81-2.5h-8l.81,2.5V96.94l3.17,3.21h13l3.26-3.21v-33ZM160.51,97.7V76.59l9.38,23.56h7.3l-.82-2.45V63.89l.82-2.5h-8.11l.81,2.5V85l-9.38-23.61h-7.19l.82,2.5V97.7l-.82,2.45h8Zm21.37-33.86-.71-2.45H198.1l3.27,3.16V96.94l-3.27,3.21H181.17l.71-2.5Zm6.48,4.69V92.86l.77.76h4.94l.77-.76V68.53l-.77-.76h-4.94Zm-74.75,55.86H92.85l-1.17,7.24,2.65-.71h4.94l.77.71V160.7l-.82,2.45h8.11l-.81-2.45V131.63l.71-.71h4.85l2.75.71Zm4.64,2.5V160.7l-.82,2.45h8l-.81-2.45V147.6l.76-.77h5l.76.77v13.1l-.76,2.45h8.11l-.82-2.45V126.89l.82-2.5h-8.11l.76,2.5v12.7l-.76.76h-5l-.76-.76v-12.7l.81-2.5h-8Zm43.56,36.26,1.17-7.29-2.65.76h-10l-.76-.76v-8.37l.76-.71h3.27l2.5.82v-8.11l-2.5.81h-3.27l-.76-.76v-8l.76-.76h10l2.65.76-1.17-7.14H142.43l.81,2.45v33.81l-.81,2.5Zm-116.88,63h12.9L61,222.94v-6.58l.82-2.45H53.75l.87,2.45v2.5l-.72.76h-5l-.76-.76V194.53l.76-.76h5l.72.76v2.55l-.87,2.45h8.11L61,197.08v-6.53l-3.21-3.16H44.93l-3.27,3.16v32.39Zm37.28-38.76,3.21,3.16v32.39l-3.21,3.21H69.31L66,222.94V190.55l3.27-3.16Zm-3.31,7.24-.77-.71H73.24l-.77.71V219l.77.71h4.89l.77-.71Zm31.93-7.24h-8.11l.81,2.5V219l-.76.71h-5L97,219V189.89l.81-2.5h-8l.82,2.5v33.05l3.16,3.21h13l3.26-3.21V189.89ZM121.9,223.7V202.59l9.38,23.56h7.29l-.81-2.45V189.89l.81-2.5h-8.1l.81,2.5V211l-9.38-23.61h-7.19l.81,2.5V223.7l-.81,2.45h8Zm41.21-36.31H142.35l-1.17,7.24,2.65-.71h4.95l.76.71V223.7l-.81,2.45h8.11L156,223.7V194.63l.71-.71h4.85l2.75.71ZM175,226.15h-8l.81-2.45V189.89l-.81-2.5h16.93l3.26,3.16V208.2l-3.26,3.26,2.81,12.09,1,2.6h-8l.56-2.4-2.75-11.68-.51-.61h-2.1l-.76.77V223.7ZM174.89,205h5l.77-.72v-9.69l-.77-.71h-5l-.76.71v9.69Zm30.46,7.6,7.85-22.39,1.89-2.86h-9.54l.92,1.53-4.34,14.23-4.33-14.23.92-1.53h-9.54l1.89,2.86,7.9,22.39V223.7l-.82,2.45h7.91l-.71-2.45Z" transform="translate(-12.95 -14.79)"/></g></g></svg>